<svg xmlns="http://www.w3.org/2000/svg" xmlns:xlink="http://www.w3.org/1999/xlink" width="472" height="364"><defs><path id="prefix__a" d="M45.199 1.799a.828.828 0 00-.828-.828H1.298a.829.829 0 00-.829.828v28.073c0 .458.371.829.829.829h43.073c.457 0 .828-.371.828-.829"></path><path id="prefix__c" d="M138.645 3.801A3.135 3.135 0 00135.51.666H3.653A3.136 3.136 0 00.518 3.801v85.538a3.135 3.135 0 003.135 3.134H135.51a3.134 3.134 0 003.135-3.134"></path><path id="prefix__e" d="M34.624 1.483a.828.828 0 00-.828-.828H1.501a.829.829 0 00-.829.828v20.91c0 .458.371.828.829.828h32.295c.457 0 .828-.37.828-.828"></path></defs><g fill="none" fill-rule="evenodd"><path fill="#EDF2F9" d="M173 198.356c-3.628-8.793-10.525-31.024-42.184-30.648-12.257.146-22.218 9.883-34.62 10.018-4.259.047-8.462-.925-12.287-2.766-5.541-2.668-11.655-6.575-18.059-4.102-9.15 3.533-5.098 18.13-15.026 20.783-4.526 1.21-8.851.54-12.765-2.064-4.714-3.137-6.19-6.925-12.718-5.023-8.17 2.38-7.624 11.639-16.341 13.802h164zM369.935 55.542h62.317s-3.625-3.142-7.452-3.155c-3.827-.013-6.682 1.603-9.904 1.387-3.223-.217-5.687-5.954-9.514-5.967-3.827-.013-4.465 3.094-8.044 2.99-5.213-.153-5.533-8.758-15.485-8.652-10.958.117-11.918 13.397-11.918 13.397zm-23.082-28.603a.876.876 0 00-.001-1.617l-32.769-13.65a.876.876 0 00-1.186 1.023l2.439 9.681a.878.878 0 00.656.64l11.273 2.558a.576.576 0 01-.015 1.128l-11.188 2.231a.876.876 0 00-.679.648l-2.493 10.037a.876.876 0 001.188 1.019l32.775-13.698z"></path><path stroke="#CDDCF1" stroke-dasharray="0 6 0 0" stroke-linecap="round" stroke-linejoin="round" stroke-width="2" d="M188.538 48.843h46.072a22.687 22.687 0 0017.742-8.546l2.112-2.65a33.17 33.17 0 0125.938-12.495h28.736"></path><path fill="#CDDCF1" d="M421.792 87.438c0-8.197-6.644-14.842-14.841-14.842H102.927a7.557 7.557 0 00-7.556 7.557v205.516h326.421V87.438z"></path><path fill="#001447" d="M421.792 87.438c0-8.197-6.644-14.842-14.841-14.842H102.927a7.557 7.557 0 00-7.556 7.557v205.516h326.421V87.438zm-1.5 196.731V87.438c0-7.368-5.973-13.342-13.341-13.342H102.927a6.057 6.057 0 00-6.056 6.057v204.016h323.421z"></path><path fill="#F8FAFF" d="M411.003 92.761a9.024 9.024 0 00-9.024-9.024H113.716a7.556 7.556 0 00-7.556 7.556v194.376h304.843V92.761z"></path><path fill="#F8FAFF" d="M411.003 92.761a9.024 9.024 0 00-9.024-9.024H113.716a7.556 7.556 0 00-7.556 7.556v194.376h304.843V92.761zm-1.5 191.408V92.761a7.523 7.523 0 00-7.524-7.524H113.716a6.057 6.057 0 00-6.056 6.056v192.876h301.843z"></path><path stroke="#CDDCF1" stroke-linejoin="round" stroke-width="1.5" d="M316.295 241.774h-83.522a2 2 0 00-2 2v5.192a2 2 0 002 2h81.206a1.998 1.998 0 012 2v5.635a2 2 0 01-2 2H229.8m6.088-152.779h-88.971a2 2 0 00-2 2v9.508a2 2 0 002 2h86.639a2 2 0 012 2v10.158a2 2 0 01-2 2h-85.963a2.675 2.675 0 00-2.676 2.676v8.284a2.677 2.677 0 002.676 2.675h26.689"></path><path fill="#CDDCF1" d="M218.057 189.591a4.888 4.888 0 00-4.888-4.888h-63.364a4.889 4.889 0 00-4.888 4.888v66.707c0 2.7 2.189 4.888 4.888 4.888h63.364c2.7 0 4.888-2.188 4.888-4.888v-66.707zm-1.5 0v66.707a3.388 3.388 0 01-3.388 3.388h-63.364a3.388 3.388 0 01-3.388-3.388v-66.707a3.388 3.388 0 013.388-3.388h63.364a3.388 3.388 0 013.388 3.388zm165.978-76.881a4.888 4.888 0 00-4.887-4.888h-90.492a4.888 4.888 0 00-4.888 4.888v54.072c0 2.7 2.188 4.888 4.888 4.888h90.492a4.887 4.887 0 004.887-4.888V112.71zm-1.5 0a3.387 3.387 0 00-3.387-3.388h-90.492a3.388 3.388 0 00-3.388 3.388v54.072a3.388 3.388 0 003.388 3.388h90.492a3.387 3.387 0 003.387-3.388V112.71z"></path><path stroke="#00BE89" stroke-dasharray="0 6 0 0" stroke-linecap="round" stroke-linejoin="round" stroke-width="2" d="M180.016 219.038h-41.017M381.969 155.292h-47.693"></path><path fill="#FFF" d="M412.003 134.983c-11.727 0-21.249 9.521-21.249 21.248 0 11.728 9.522 21.249 21.249 21.249 11.728 0 21.249-9.521 21.249-21.249 0-11.727-9.521-21.248-21.249-21.248z"></path><path stroke="#519FF2" stroke-linecap="round" stroke-linejoin="round" stroke-width="1.5" d="M412.003 134.983c-11.727 0-21.249 9.521-21.249 21.248 0 11.728 9.522 21.249 21.249 21.249 11.728 0 21.249-9.521 21.249-21.249 0-11.727-9.521-21.248-21.249-21.248z"></path><path fill="#2D3F86" d="M412.748 159.443a6.503 6.503 0 005.512 3.05 6.51 6.51 0 006.507-6.506 6.51 6.51 0 00-6.507-6.507 6.511 6.511 0 00-5.981 3.944h-11.824l-3.104 2.486 3.104 3.32 2.275-1.686 2.589 1.739 2.362-1.72 2.68 1.88h2.387zm5.512-5.812a2.357 2.357 0 000 4.711 2.357 2.357 0 000-4.711z"></path><path fill="#CDDCF1" d="M277.47 278.619a7.111 7.111 0 013.971-1.212h168.857a3.177 3.177 0 013 4.223l-.915 2.625a23.995 23.995 0 01-22.656 16.093H87.157a23.994 23.994 0 01-22.95-16.992l-.562-1.845a3.178 3.178 0 013.039-4.105h169.038c1.415 0 2.798.422 3.972 1.212 4.689 3.196 9.732 6.579 18.888 6.579 9.155 0 14.198-3.383 18.888-6.578z"></path><path fill="#001447" d="M277.47 278.619a7.111 7.111 0 013.971-1.212h168.857a3.177 3.177 0 013 4.223l-.915 2.625a23.995 23.995 0 01-22.656 16.093H87.157a23.994 23.994 0 01-22.95-16.992l-.562-1.845a3.178 3.178 0 013.039-4.105h169.038c1.415 0 2.798.422 3.972 1.212 4.689 3.196 9.732 6.579 18.888 6.579 9.155 0 14.198-3.383 18.888-6.578zm.837 1.244c-4.895 3.336-10.17 6.834-19.725 6.834-9.56 0-14.836-3.502-19.725-6.834a5.618 5.618 0 00-3.135-.957H66.684a1.677 1.677 0 00-1.605 2.168l.563 1.845a22.494 22.494 0 0021.515 15.929h342.57a22.495 22.495 0 0021.24-15.087l.915-2.625a1.676 1.676 0 00-1.584-2.23l-168.857.001a5.615 5.615 0 00-3.134.956z"></path><path stroke="#001447" stroke-linejoin="round" stroke-width="1.5" d="M146.657 289.298h-8.038M133.224 289.298H82.688M343.781 289.298h-42.176"></path><path fill="#FFF" d="M144.837 61.764l-39.046-12.921L66.5 61.764l.08 20.604c.101 25.888 15.48 47.667 39.21 58.014l.002.001c23.838-10.33 39.227-32.263 39.126-58.242l-.08-20.377z"></path><path stroke="#00BE89" stroke-linecap="round" stroke-linejoin="round" stroke-width="1.5" d="M144.837 61.764l-39.046-12.921L66.5 61.764l.08 20.604c.101 25.888 15.48 47.667 39.21 58.014l.002.001s0 0 0 0c23.838-10.33 39.227-32.263 39.126-58.242l-.08-20.377z"></path><path fill="#00BE89" d="M137.627 67.116l-31.836-10.819-32.036 10.819.065 16.816c.083 21.54 12.514 39.517 31.971 48.758l.001-.001c19.545-9.224 31.982-27.324 31.9-48.937l-.065-16.636z"></path><path fill="#FFF" d="M116.671 104.671a18.654 18.654 0 01-10.88 3.479c-10.316 0-18.679-8.327-18.679-18.6 0-10.272 8.363-18.599 18.68-18.599 10.315 0 18.678 8.327 18.678 18.599 0 1.583-.267 3.64-.574 4.584-.994 3.053-3.691 4.603-8.597 4.518-.468-.008-9.671 0-9.671 0-5.713 0-9.221-3.981-9.221-8.978 0-4.998 3.631-8.898 9.343-8.898s9.466 3.9 9.425 8.898l-4.733-.038c.041-2.274-1.387-4.63-4.733-4.63-3.345 0-4.57 2.356-4.57 4.63 0 2.276 1.51 4.47 4.856 4.47 0 0 11.859.508 12.582 0 .722-.508.793-2.956.793-4.555 0-7.468-6.08-13.522-13.579-13.522-7.5 0-13.579 6.054-13.579 13.522s6.08 13.521 13.58 13.521c2.455 0 4.759-.648 6.746-1.784 3.311 2.636 4.138 3.388 4.133 3.383zm324.313 105.925a11.768 11.768 0 00-11.769-11.769h-63.824a11.768 11.768 0 00-11.769 11.769v124.45a11.77 11.77 0 0011.769 11.769h63.824a11.77 11.77 0 0011.769-11.769v-124.45z"></path><path stroke="#001447" stroke-linejoin="round" stroke-width="1.5" d="M440.984 210.596a11.768 11.768 0 00-11.769-11.769h-63.824a11.768 11.768 0 00-11.769 11.769v124.45a11.77 11.77 0 0011.769 11.769h63.824a11.77 11.77 0 0011.769-11.769v-124.45z"></path><path fill="#FFF" d="M436.515 210.596a11.768 11.768 0 00-11.769-11.769h-63.824a11.77 11.77 0 00-11.769 11.769v124.45a11.77 11.77 0 0011.769 11.769h63.824a11.768 11.768 0 0011.769-11.769v-124.45z"></path><path stroke="#001447" stroke-linejoin="round" stroke-width="1.5" d="M436.515 210.596a11.768 11.768 0 00-11.769-11.769h-63.824a11.77 11.77 0 00-11.769 11.769v124.45a11.77 11.77 0 0011.769 11.769h63.824a11.768 11.768 0 0011.769-11.769v-124.45z"></path><path fill="#EDF2F9" d="M428.002 237.276a4.047 4.047 0 00-4.047-4.047h-61.87a4.047 4.047 0 00-4.047 4.047v86.268a4.047 4.047 0 004.047 4.047h61.87a4.047 4.047 0 004.047-4.047v-86.268z"></path><path stroke="#CDDCF1" stroke-linejoin="round" stroke-width="1.5" d="M421.483 296.017h-53.137a1.999 1.999 0 00-2 2v5.191a2 2 0 002 2h50.933a1.998 1.998 0 012 2v5.635a2 2 0 01-2 2h-53.56"></path><path fill="#001447" d="M411.269 199.218h-36.87v2.573a6.02 6.02 0 006.019 6.02h24.832a6.019 6.019 0 006.019-6.02v-2.573z"></path><path fill="#2D3F86" d="M388.107 229.865v-1.327c0-3.579 2.062-6.48 5.641-6.48h.01c3.579 0 5.641 2.901 5.641 6.48v1.327h1.137a2.087 2.087 0 012.087 2.087v7.974c0 .553-.22 1.084-.612 1.475a2.084 2.084 0 01-1.475.612H386.97a2.084 2.084 0 01-2.086-2.087v-7.974a2.087 2.087 0 012.086-2.087h1.137zm4.663 6.366a1.68 1.68 0 111.679 0v2.111a.84.84 0 11-1.679 0v-2.111zm4.11-6.366v-1.327c0-2.188-.934-3.961-3.122-3.961h-.01c-2.188 0-3.121 1.773-3.121 3.961v1.327h6.253z"></path><path fill="#00BE89" d="M415.199 251.364a.828.828 0 00-.828-.828h-43.073a.829.829 0 00-.829.828v28.073c0 .458.371.829.829.829h43.073c.457 0 .828-.371.828-.829v-28.073z"></path><g transform="translate(370 249.565)"><mask id="prefix__b" fill="#fff"><use xlink:href="#prefix__a"></use></mask><path stroke="#FFF" stroke-linecap="round" stroke-linejoin="round" stroke-width="1.5" mask="url(#prefix__b)" d="M.469 2.022l22.365 18.796L45.199 2.022"></path><path stroke="#FFF" stroke-linejoin="round" stroke-width="1.5" mask="url(#prefix__b)" d="M.406 30.764l15.646-15.646M45.134 30.764L29.487 15.118"></path></g><path stroke="#00BE89" stroke-linecap="round" stroke-linejoin="round" stroke-width="1.5" d="M415.199 251.364a.828.828 0 00-.828-.828h-43.073a.829.829 0 00-.829.828v28.073c0 .458.371.829.829.829h43.073c.457 0 .828-.371.828-.829v-28.073z"></path><path fill="#CDDCF1" d="M406.273 337.167a1.773 1.773 0 00-1.772-1.772h-23.333a1.771 1.771 0 00-1.772 1.772 1.77 1.77 0 001.772 1.773h23.333a1.773 1.773 0 001.772-1.772v-.001z"></path><path fill="#ABC0DD" d="M398.514 202.419a.886.886 0 00-.886-.886H386.04a.886.886 0 00-.886.886v.001a.886.886 0 00.886.886h11.588a.886.886 0 00.886-.886v-.001z"></path><path fill="#CDDCF1" d="M403.382 200.533a1.88 1.88 0 010 3.758 1.88 1.88 0 010-3.758z"></path><path fill="#FFF" d="M327.645 142.366a3.135 3.135 0 00-3.135-3.135H192.653a3.136 3.136 0 00-3.135 3.135v85.538a3.135 3.135 0 003.135 3.134H324.51a3.134 3.134 0 003.135-3.134v-85.538z"></path><g transform="translate(189 138.565)"><mask id="prefix__d" fill="#fff"><use xlink:href="#prefix__c"></use></mask><path fill="#FFF" d="M.518 3.912l65.04 54.661a6.254 6.254 0 008.047 0l65.04-54.661" mask="url(#prefix__d)"></path><path stroke="#39BB85" stroke-linecap="round" stroke-linejoin="round" stroke-width="1.5" d="M.518 3.912l65.04 54.661a6.254 6.254 0 008.047 0l65.04-54.661" mask="url(#prefix__d)"></path><path stroke="#00BE89" stroke-linejoin="round" stroke-width="1.5" mask="url(#prefix__d)" d="M.321 92.67l48.317-48.317M138.444 92.67L90.127 44.353"></path></g><path stroke="#00BE89" stroke-linecap="round" stroke-linejoin="round" stroke-width="1.5" d="M327.645 142.366a3.135 3.135 0 00-3.135-3.135H192.653a3.136 3.136 0 00-3.135 3.135v85.538a3.135 3.135 0 003.135 3.134H324.51a3.134 3.134 0 003.135-3.134v-85.538z"></path><path stroke="#001447" stroke-linecap="round" stroke-linejoin="round" stroke-width="1.5" d="M327.645 129.741h8.563v11.052M327.645 240.09h8.563v-11.052M188.518 129.741h-8.563v11.052M188.518 240.09h-8.563v-11.052"></path><path fill="#2D3F86" d="M250.123 160.64v-1.989c0-5.362 3.089-9.709 8.451-9.709h.015c5.362 0 8.451 4.347 8.451 9.709v1.989h1.704a3.13 3.13 0 012.211.915 3.13 3.13 0 01.915 2.211v11.947a3.13 3.13 0 01-.915 2.211 3.13 3.13 0 01-2.211.915h-20.325a3.125 3.125 0 01-3.126-3.126v-11.947a3.126 3.126 0 013.126-3.126h1.704zm6.985 9.537a2.515 2.515 0 011.258-4.695 2.517 2.517 0 011.258 4.695v3.163a1.259 1.259 0 11-2.516 0v-3.163zm6.158-9.537v-1.989c0-3.277-1.399-5.934-4.677-5.934h-.015c-3.278 0-4.677 2.657-4.677 5.934v1.989h9.369z"></path><path stroke="#519FF2" stroke-dasharray="0 6 0 0" stroke-linecap="round" stroke-linejoin="round" stroke-width="2" d="M433.252 156.287h.001c11.884 0 21.518 9.634 21.518 21.518v63.971c0 12.13-9.585 22.09-21.705 22.557l-13.846.533"></path><path stroke="#00BE89" stroke-dasharray="0 6 0 0" stroke-linecap="round" stroke-linejoin="round" stroke-width="2" d="M255.85 130.48v-21.27a14 14 0 00-14.001-14.001h-90.437"></path><path stroke="#A867DE" stroke-dasharray="0 6 0 0" stroke-linecap="round" stroke-linejoin="round" stroke-width="2" d="M59.806 115.983H55.84c-7.809 0-14.139 6.33-14.139 14.138V204.9a14.136 14.136 0 0014.139 14.138h31.45"></path><path stroke="#CDDCF1" stroke-dasharray="0 6 0 0" stroke-linecap="round" stroke-linejoin="round" stroke-width="2" d="M328.66 330.503H173.129M121.905 330.503h-14.797"></path><path fill="#FFF" d="M168.624 320.048a.828.828 0 00-.828-.828h-32.295a.829.829 0 00-.829.828v20.91c0 .458.371.828.829.828h32.295c.457 0 .828-.37.828-.828v-20.91z"></path><g transform="translate(134 318.565)"><mask id="prefix__f" fill="#fff"><use xlink:href="#prefix__e"></use></mask><path stroke="#CDDCF1" stroke-linecap="round" stroke-linejoin="round" stroke-width="1.5" mask="url(#prefix__f)" d="M.672 1.453L17.648 15.72 34.624 1.453"></path><path stroke="#CDDCF1" stroke-linejoin="round" stroke-width="1.5" mask="url(#prefix__f)" d="M.624 23.27L12.5 11.393M34.575 23.27L22.698 11.393"></path></g><path stroke="#CDDCF1" stroke-linecap="round" stroke-linejoin="round" stroke-width="1.5" d="M168.624 320.048a.828.828 0 00-.828-.828h-32.295a.829.829 0 00-.829.828v20.91c0 .458.371.828.829.828h32.295c.457 0 .828-.37.828-.828v-20.91z"></path><path fill="#FFF" d="M104.86 189.225c16.454 0 29.812 13.359 29.812 29.813 0 16.455-13.358 29.814-29.813 29.814-16.454 0-29.813-13.359-29.813-29.814 0-16.454 13.359-29.813 29.813-29.813z"></path><path stroke="#A867DE" stroke-linecap="round" stroke-linejoin="round" stroke-width="1.5" d="M104.86 189.225c16.454 0 29.812 13.359 29.812 29.813 0 16.455-13.358 29.814-29.813 29.814-16.454 0-29.813-13.359-29.813-29.814 0-16.454 13.359-29.813 29.813-29.813z"></path><path fill="#2D3F86" d="M103.814 223.544a9.124 9.124 0 01-7.734 4.28c-5.038 0-9.129-4.09-9.129-9.129 0-5.038 4.09-9.129 9.129-9.129a9.136 9.136 0 018.392 5.534h16.589l4.355 3.487-4.355 4.659-3.191-2.367-3.633 2.441-3.314-2.413-3.76 2.637h-3.349zm-7.734-8.154a3.307 3.307 0 013.305 3.305A3.307 3.307 0 0196.08 222a3.307 3.307 0 01-3.305-3.305 3.307 3.307 0 013.305-3.305z"></path><path stroke="#00BE89" stroke-linejoin="round" stroke-width="1.5" d="M255.85 130.48v8.751M327.645 155.19h8.531M189.518 218.867h-6.538"></path><path stroke="#CDDCF1" stroke-linejoin="round" stroke-width="1.5" d="M144.917 166.094h34.581M335.062 189.225h46.992"></path></g></svg>